<svg xmlns="http://www.w3.org/2000/svg" viewBox="0 0 754 200.25"><defs><style>.cls-1{fill:#fff;}</style></defs><g id="Layer_2" data-name="Layer 2"><g id="Layer_1-2" data-name="Layer 1"><path class="cls-1" d="M199.86,193.05a25.08,25.08,0,0,1-18.07,7.07c-17.67,0-25.14-12.17-25.21-24.53s8-25.07,25.21-25.07a24.55,24.55,0,0,1,17.46,7.27l-6,5.78a16.34,16.34,0,0,0-11.48-4.49c-11.48,0-16.44,8.56-16.38,16.51s4.62,16.1,16.38,16.1a17.51,17.51,0,0,0,12-4.82Z"/><path class="cls-1" d="M262.5,175.52c-.14,12.3-7.68,24.6-24.4,24.6s-24.45-12-24.45-24.53,8-25.07,24.45-25.07S262.63,163.09,262.5,175.52Zm-40,.21c.2,7.81,4.41,16.17,15.62,16.17s15.43-8.43,15.56-16.24c.14-8-4.34-17-15.56-17S222.28,167.71,222.48,175.73Z"/><path class="cls-1" d="M311.2,151.4h9V199H314.6v.07L289.6,167V199h-9V151.47h7.27L311.2,181Z"/><path class="cls-1" d="M381.18,193.05a25.08,25.08,0,0,1-18.07,7.07c-17.67,0-25.14-12.17-25.21-24.53s8-25.07,25.21-25.07a24.55,24.55,0,0,1,17.46,7.27l-6,5.78a16.34,16.34,0,0,0-11.48-4.49c-11.48,0-16.44,8.56-16.38,16.51s4.62,16.1,16.38,16.1a17.51,17.51,0,0,0,11.95-4.82Z"/><path class="cls-1" d="M432.54,199h-35.6V151.47h35.6v8.7h-26.7v10.94h25.75v8.35H405.84V190.2h26.7Z"/><path class="cls-1" d="M472.75,185H459.3v14h-9V151.47c7.48,0,14.95-.07,22.42-.07C496,151.4,496.06,185,472.75,185Zm-13.45-8.22h13.45c11.49,0,11.42-16.85,0-16.85H459.3Z"/><path class="cls-1" d="M519.43,159.62H504.34v-8.15h39.14v8.15H528.39V199h-9Z"/><path class="cls-1" d="M589.13,163c-1.63-2.72-6.11-5.3-11.28-5.3-6.66,0-9.85,2.79-9.85,6.32,0,4.15,4.89,5.3,10.6,6,9.92,1.22,19.16,3.81,19.16,15.15,0,10.6-9.38,15.15-20,15.15-9.71,0-17.19-3-20.72-11.68l7.47-3.88c2.11,5.24,7.61,7.54,13.39,7.54s10.94-2,10.94-7.13c0-4.48-4.69-6.32-11-7-9.71-1.15-18.68-3.73-18.68-14.4,0-9.78,9.64-13.79,18.41-13.86,7.4,0,15.08,2.11,18.68,9.45Z"/><path class="cls-1" d="M107.66,35.59c0,9.42-4.53,18.49-15.87,23.55,14.3,4.36,19.54,19.53,19.54,27.21,0,27.21-20.41,35.93-45.7,35.93H0V.18H65.63C89.7.18,107.66,11,107.66,35.59Zm-85,13.61H65.63c14.47,0,19.18-6.11,19.18-13.09,0-5.58-4.53-15-19.18-15H22.68Zm0,51.62H65.63c9.41,0,22.85-3.14,22.85-14.65,0-11-13.44-16.74-22.85-16.74H22.68Z"/><path class="cls-1" d="M234.43.36V66.43c0,36.11-22.15,54.6-52.85,54.6-29.31,0-54.25-17.79-54.25-54.6V.36h22.85V66.43c0,22,12.56,33.67,31.57,33.67s29.83-12.74,29.83-33.67V.36Z"/><path class="cls-1" d="M277,.18V62.64h62.46V85.71H254V.18Z"/><path class="cls-1" d="M462.75,35.59c0,9.42-4.53,18.49-15.87,23.55,14.3,4.36,19.53,19.53,19.53,27.21,0,27.21-20.41,35.93-45.7,35.93H355.09V.18h65.62C444.78.18,462.75,11,462.75,35.59Zm-85,13.61h42.95c14.48,0,19.19-6.11,19.19-13.09,0-5.58-4.53-15-19.19-15H377.76Zm0,51.62h42.95c9.42,0,22.85-3.14,22.85-14.65,0-11-13.43-16.74-22.85-16.74H377.76Z"/><path class="cls-1" d="M484.84,122.28V.18h22.85v122.1Z"/><path class="cls-1" d="M606.13,0h23V122.28h-14.3v.17L550.67,40v82.33h-23V.18h18.67l59.82,75.7Z"/><path class="cls-1" d="M737.29,31.6C729.51,24.15,717.94,20,707.84,20,683,20,668,38.88,668,62.7c0,19,11.09,38.71,39.87,38.71,9.1,0,17-2,26.14-9.26V71.64H704.37V52.11H754v48.81c-11.41,13.07-25.81,20.84-46.16,20.84-43.51,0-61.21-28.62-61.21-59.06C646.63,30.11,667,0,707.84,0a61.22,61.22,0,0,1,43,17.7Z"/><rect class="cls-1" x="253.98" y="99.23" width="85.48" height="23.06"/></g></g></svg>